<?xml version="1.0" encoding="utf-8"?>
<svg version="1.0" width="1024.000000pt" height="1024.000000pt" viewBox="0 0 1024.000000 1024.000000" preserveAspectRatio="xMidYMid meet" xmlns="http://www.w3.org/2000/svg">
  <path style="stroke: rgb(0, 0, 0); fill: rgb(249, 188, 96);" d="M 390.847 461.069 L 619.594 462.336 C 619.594 462.336 639.86 292.834 614.527 277.634 C 589.194 262.434 522.065 204.172 487.867 230.771 C 453.669 257.37 389.072 283.968 389.072 351.097 C 389.072 418.226 390.338 460.023 390.847 461.069 Z"/>
  <g transform="matrix(0.1, 0, 0, -0.1, 0, 1024)" fill="#000000" stroke="none">
    <path style="stroke: rgb(0, 0, 0); fill: rgb(225, 97, 110);" d="M 3940.63 5553.08 L 6307.48 5580.14 C 6307.48 5580.14 6321.14 3961.03 5915.83 3961.03 C 5510.52 3961.03 4299.15 3641.92 4147.16 4085.23 C 3995.17 4528.54 3931.84 5529.14 3940.63 5553.08 Z"/>
    <path d="M4950 8904 c-476 -40 -820 -133 -1195 -321 -600 -301 -1068 -766 -1369 -1362 -229 -453 -331 -957 -298 -1467 13 -201 37 -348 87 -539 78 -299 182 -544 346 -815 149 -245 287 -417 510 -635 134 -131 148 -148 137 -164 -7 -10 -69 -76 -138 -148 -107 -112 -131 -131 -165 -137 -78 -15 -130 -51 -179 -126 -20 -30 -154 -178 -299 -328 -144 -150 -290 -305 -324 -343 -113 -129 -163 -257 -163 -419 1 -104 12 -156 53 -240 136 -277 491 -373 765 -208 70 43 817 802 852 865 31 59 32 130 1 193 l-21 44 197 200 c109 110 199 202 201 205 2 5 21 -1 167 -53 220 -77 421 -123 667 -152 111 -13 196 -15 378 -11 386 9 681 67 1040 204 552 211 1056 599 1389 1067 245 346 425 756 506 1161 42 208 50 298 50 570 0 302 -15 431 -76 676 -128 511 -375 954 -748 1342 -487 505 -1148 834 -1852 922 -123 15 -432 27 -519 19z m470 -289 c827 -100 1584 -570 2041 -1267 208 -319 352 -713 400 -1103 18 -143 16 -493 -4 -640 -106 -782 -554 -1489 -1223 -1931 -352 -232 -734 -375 -1179 -440 -182 -27 -543 -25 -734 5 -552 85 -1069 332 -1461 697 -484 452 -775 990 -875 1621 -22 137 -30 468 -16 633 90 1033 847 1958 1886 2305 188 63 358 98 610 128 88 11 443 6 555 -8z m-1837 -5262 c45 -29 97 -60 115 -69 l33 -15 -37 -42 c-21 -23 -101 -108 -179 -189 l-142 -146 -147 140 -146 140 152 158 151 159 59 -42 c32 -23 96 -66 141 -94z" style="fill: rgb(0, 30, 29);"/>
    <path d="M4880 8405 c-508 -51 -973 -242 -1370 -562 -168 -135 -393 -378 -522 -563 -201 -287 -350 -676 -393 -1025 -17 -139 -20 -443 -4 -583 90 -830 630 -1594 1398 -1977 240 -120 452 -190 716 -237 115 -20 162 -23 400 -23 290 1 385 11 613 70 739 188 1367 697 1692 1370 178 371 263 764 246 1150 -4 117 -23 304 -30 312 -5 6 -152 -40 -188 -58 -106 -54 -189 -174 -224 -323 -10 -42 -20 -76 -24 -76 -3 0 -12 28 -19 63 -45 220 -151 330 -371 386 -78 19 -78 21 5 42 191 48 297 147 351 329 38 124 35 118 44 95 4 -11 18 -54 30 -95 12 -41 34 -96 48 -123 34 -63 109 -132 178 -164 59 -27 155 -55 163 -48 17 17 -88 364 -160 529 -370 842 -1232 1443 -2178 1516 -164 12 -239 11 -401 -5z m-467 -244 c50 -19 57 -92 16 -172 -35 -70 -200 -203 -267 -215 -31 -6 -39 -3 -60 21 -20 24 -23 36 -18 72 12 87 59 152 177 246 68 54 104 66 152 48z m-433 -251 c17 -17 20 -33 20 -104 0 -45 -5 -97 -11 -114 -7 -21 -58 -73 -152 -155 -78 -68 -200 -175 -271 -238 -326 -287 -355 -309 -410 -309 -16 0 -38 11 -53 26 -22 22 -24 31 -19 66 11 70 64 181 109 230 43 47 536 487 640 571 66 53 112 62 147 27z m2395 -94 c32 -32 40 -69 25 -107 -17 -40 -46 -59 -91 -59 -74 0 -119 73 -85 138 20 39 41 51 89 52 27 0 45 -7 62 -24z m-992 -60 c340 -102 579 -335 693 -676 l29 -85 5 -620 c3 -341 3 -628 1 -637 -3 -17 -59 -18 -997 -18 l-994 0 0 584 c0 467 3 600 15 667 65 376 353 688 726 788 110 29 112 30 279 27 133 -3 167 -7 243 -30z m1395 -382 c7 -25 28 -69 46 -99 29 -44 46 -59 107 -89 39 -20 78 -36 85 -36 32 0 11 -17 -35 -29 -76 -19 -136 -62 -170 -123 -17 -29 -31 -58 -31 -65 0 -6 -5 -24 -11 -40 -10 -27 -11 -26 -32 38 -13 37 -35 82 -50 102 -29 39 -112 84 -169 94 -39 6 -53 23 -19 23 10 0 51 16 90 36 84 42 123 88 149 176 9 32 19 58 22 58 3 0 11 -21 18 -46z m-3167 -583 c53 -53 35 -138 -35 -161 -41 -13 -75 -2 -105 36 -49 62 -4 154 74 154 27 0 44 -8 66 -29z m-443 -50 c32 -155 125 -255 280 -301 23 -7 42 -16 42 -20 0 -4 -21 -13 -46 -19 -147 -37 -238 -135 -276 -295 -7 -31 -15 -56 -18 -56 -4 0 -12 24 -19 53 -44 174 -142 272 -304 302 -49 10 -47 20 9 34 69 18 154 64 196 108 43 44 83 126 99 201 6 28 14 52 18 52 4 0 12 -26 19 -59z m3660 -686 c32 -38 30 -98 -4 -130 -32 -29 -97 -34 -131 -10 -34 24 -47 76 -29 119 28 68 113 78 164 21z m-3609 -299 c87 -45 54 -186 -44 -186 -47 0 -71 13 -90 50 -48 92 42 183 134 136z m3904 -196 c38 -42 37 -92 -2 -131 -85 -84 -223 32 -150 125 43 54 105 57 152 6z m-1013 -555 c-12 -135 -38 -232 -94 -351 -57 -120 -108 -193 -197 -285 -124 -125 -282 -216 -464 -265 -109 -29 -380 -27 -494 4 -301 82 -556 315 -671 614 -55 142 -62 190 -67 485 l-5 273 993 2 994 3 7 -185 c4 -102 3 -234 -2 -295z m744 0 c30 -32 38 -72 22 -110 -18 -43 -43 -60 -88 -60 -53 0 -98 47 -98 101 0 81 110 127 164 69z m-3343 -34 c16 -16 29 -38 30 -48 3 -48 -4 -70 -32 -95 -41 -39 -90 -38 -130 1 -62 62 -20 171 66 171 27 0 44 -8 66 -29z m2974 -431 c22 -25 22 -76 -1 -101 -10 -11 -30 -19 -49 -19 -39 0 -66 27 -67 69 -1 41 27 71 67 71 19 0 39 -8 50 -20z" style="fill: rgb(171, 209, 198);"/>
    <path d="M4592 7079 c-69 -20 -132 -111 -132 -190 0 -135 144 -228 272 -175 76 32 138 137 122 209 -26 121 -143 190 -262 156z" style="fill: rgb(12, 40, 40);"/>
    <path d="M5516 7076 c-56 -21 -104 -72 -121 -129 -50 -168 129 -311 279 -223 67 39 100 94 101 166 0 136 -133 232 -259 186z" style="fill: rgb(0, 30, 29);"/>
    <path d="M4824 6612 c-33 -26 -69 -52 -80 -58 -17 -10 -13 -17 46 -78 78 -82 124 -110 210 -130 119 -28 229 -14 334 42 48 26 166 134 166 153 0 4 -12 15 -27 23 -16 8 -50 33 -76 56 l-48 43 -37 -35 c-62 -60 -96 -73 -192 -73 -74 0 -91 3 -130 27 -25 14 -56 38 -69 52 -14 14 -27 26 -30 25 -3 0 -33 -22 -67 -47z" style="fill: rgb(0, 30, 29);"/>
  </g>
  <rect x="255.8888702392578" y="680.5555419921875" width="1" height="1" style="fill: rgb(216, 216, 216); stroke: rgb(0, 0, 0);" transform="matrix(0.23955563993273282, 0, 0, 0.23955563993273282, 399.56558973821217, 227.4508864287002)" ry="0" rx="0"/>
</svg>